<svg width="72" height="49" viewBox="0 0 72 49" fill="none" xmlns="http://www.w3.org/2000/svg">
<path d="M13.3402 40.5278C16.8177 42.729 20.0407 44.7639 23.6291 47.0321C21.527 48.8807 19.5404 48.5759 17.9576 47.8994C12.7839 45.6774 7.54254 43.4684 2.67591 40.6672C-1.09493 38.5006 -0.485307 35.6087 3.65432 33.8011C7.10361 32.2969 10.5961 30.8727 13.9614 29.1959C15.6041 28.3792 16.9518 26.9974 18.5206 26.0231C19.245 25.5765 20.1827 25.4772 21.0189 25.228C21.1766 26.2681 21.8131 27.5959 21.3939 28.2837C20.6026 29.5838 19.2193 30.5418 18.045 31.5987C17.4292 32.1574 16.7223 32.6139 15.1725 33.7938C17.219 33.6868 18.3469 33.8847 19.2803 33.537C24.9809 31.4376 30.8797 29.6955 36.2497 26.9461C48.3321 20.7681 59.525 13.2916 67.6913 2.08535C68.1162 1.50285 68.5808 0.849818 69.1808 0.542074C69.7458 0.247117 70.6805 0.0951048 71.1542 0.375316C71.6227 0.648036 72.0588 1.66361 71.9093 2.16893C71.4505 3.66992 70.9777 5.31151 70.0099 6.47984C67.2432 9.81581 64.4719 13.2095 61.2682 16.1095C50.7472 25.6762 38.8108 33.0224 25.3327 37.6546C21.676 38.9169 17.7686 39.486 13.3402 40.5278Z" fill="#B290FE"/>
</svg>
