<svg width="83" height="79" viewBox="0 0 83 79" fill="none" xmlns="http://www.w3.org/2000/svg">
<path d="M61.8895 65.345C49.1479 75.6372 30.3545 68.1744 29.3357 51.5469C29.2511 50.7147 29.3244 49.7824 29.3688 48.9792C40.3427 48.998 52.2437 43.6677 55.1998 34.7071C57.8244 26.6211 49.9851 22.2899 43.395 25.6927C35.57 29.7676 29.1027 36.8573 26.7785 45.417C19.8653 44.817 13.6883 41.5358 11.5492 34.1445C7.96986 21.6872 19.454 8.53802 31.2776 6.57864C32.5258 6.45167 32.4143 4.52926 31.1661 4.65623C15.2416 5.56162 2.81482 24.7339 10.2348 39.4069C13.1657 45.0783 19.2716 48.0723 26.1559 48.8013C25.0934 57.7794 30.3721 66.2807 37.8952 70.8121C46.6224 76.0199 56.2809 73.4402 63.4782 67.3271C64.642 66.368 63.0239 64.5149 61.8895 65.345ZM38.8211 32.7999C41.522 30.4233 44.955 27.8041 48.6996 27.4231C52.315 27.0133 52.436 31.9195 52.1022 34.0132C51.6531 36.6232 49.3259 38.5415 47.2435 39.9724C42.863 43.1924 36.2749 45.3761 29.9915 45.5946C31.5062 40.6482 35.0568 36.2937 38.8211 32.7999Z" fill="#AFA4F0"/>
<path d="M70.1856 62.1887C66.5721 61.3792 62.7717 60.7989 59.0848 60.9217C57.5787 60.9909 57.7901 63.0712 59.2677 63.1311C62.2226 63.251 65.1619 64.045 67.9722 64.81C67.4674 66.4586 66.9336 68.2365 66.2996 69.8564C65.7524 71.0891 64.4154 72.8226 64.9006 74.2866C65.1431 75.0188 65.7884 75.1633 66.4916 75.0496C68.1848 74.7512 68.7919 72.0411 69.368 70.6793C70.2756 68.4428 70.8959 66.278 71.4163 63.9548C71.5897 63.1809 70.9599 62.3621 70.1856 62.1887Z" fill="#AFA4F0"/>
</svg>
