<svg width="13" height="10" viewBox="0 0 13 10" fill="none" xmlns="http://www.w3.org/2000/svg">
<path d="M9.4 9.5C9.4 8.50589 8.05685 7.7 6.4 7.7C4.74315 7.7 3.4 8.50589 3.4 9.5M11.8 7.70022C11.8 6.96211 11.0595 6.32776 10 6.05M1 7.70022C1 6.96211 1.74046 6.32776 2.8 6.05M10 3.64166C10.3683 3.31207 10.6 2.8331 10.6 2.3C10.6 1.30589 9.79411 0.5 8.8 0.5C8.33899 0.5 7.91845 0.673312 7.6 0.958336M2.8 3.64166C2.43175 3.31207 2.2 2.8331 2.2 2.3C2.2 1.30589 3.00589 0.5 4 0.5C4.46101 0.5 4.88155 0.673312 5.2 0.958336M6.4 5.9C5.40589 5.9 4.6 5.09411 4.6 4.1C4.6 3.10589 5.40589 2.3 6.4 2.3C7.39411 2.3 8.2 3.10589 8.2 4.1C8.2 5.09411 7.39411 5.9 6.4 5.9Z" stroke="white" stroke-linecap="round" stroke-linejoin="round"/>
</svg>
