<svg width="13" height="10" viewBox="0 0 13 10" fill="none" xmlns="http://www.w3.org/2000/svg">
<path d="M11.8 9.49996C11.8 8.45498 10.7982 7.56599 9.4 7.23652M8.2 9.5C8.2 8.17452 6.58823 7.1 4.6 7.1C2.61177 7.1 1 8.17452 1 9.5M8.2 5.3C9.52548 5.3 10.6 4.22548 10.6 2.9C10.6 1.57452 9.52548 0.5 8.2 0.5M4.6 5.3C3.27452 5.3 2.2 4.22548 2.2 2.9C2.2 1.57452 3.27452 0.5 4.6 0.5C5.92548 0.5 7 1.57452 7 2.9C7 4.22548 5.92548 5.3 4.6 5.3Z" stroke="white" stroke-linecap="round" stroke-linejoin="round"/>
</svg>
