<svg width="18" height="25" viewBox="0 0 18 25" fill="none" xmlns="http://www.w3.org/2000/svg">
<mask id="mask0_573_27544" style="mask-type:luminance" maskUnits="userSpaceOnUse" x="0" y="0" width="18" height="25">
<rect y="0.819824" width="18" height="24" fill="white"/>
</mask>
<g mask="url(#mask0_573_27544)">
<path fill-rule="evenodd" clip-rule="evenodd" d="M14.9391 13.4152C14.9297 11.6949 15.7078 10.3964 17.2828 9.44019C16.4016 8.17925 15.0703 7.4855 13.3125 7.34957C11.6484 7.21832 9.82969 8.31988 9.16406 8.31988C8.46094 8.31988 6.84844 7.39644 5.58281 7.39644C2.96719 7.43863 0.1875 9.48238 0.1875 13.6402C0.1875 14.8683 0.4125 16.1371 0.8625 17.4464C1.4625 19.1668 3.62813 23.3855 5.8875 23.3152C7.06875 23.2871 7.90313 22.4761 9.44063 22.4761C10.9313 22.4761 11.7047 23.3152 13.0219 23.3152C15.3 23.2824 17.2594 19.448 17.8312 17.723C14.775 16.2839 14.9391 13.5043 14.9391 13.4152L14.9391 13.4152ZM12.2859 5.71826C13.5656 4.19951 13.4484 2.8167 13.4109 2.31982C12.2812 2.38545 10.9734 3.08857 10.2281 3.95576C9.4078 4.88389 8.92498 6.03232 9.02811 7.32607C10.2515 7.41982 11.3672 6.7917 12.2859 5.71826Z" fill="white"/>
</g>
</svg>
