<svg width="41" height="40" viewBox="0 0 41 40" fill="none" xmlns="http://www.w3.org/2000/svg">
<path d="M31.3708 5.02961C29.604 3.67387 27.62 2.63232 25.5059 1.94792C25.0687 1.8064 24.8501 1.73564 24.6615 1.83817C24.4729 1.9407 24.4113 2.17059 24.2882 2.63037L19.7588 19.5341C19.6368 19.9894 19.5758 20.2171 19.6794 20.3964C19.7829 20.5758 20.0106 20.6368 20.4659 20.7588L37.3696 25.2882C37.8294 25.4114 38.0593 25.473 38.2424 25.3609C38.4255 25.2488 38.4735 25.0242 38.5695 24.5748C39.0339 22.4017 39.1239 20.1627 38.8332 17.9547C38.4989 15.4159 37.6679 12.9677 36.3875 10.75C35.1071 8.5323 33.4024 6.58851 31.3708 5.02961Z" stroke="white" stroke-width="3"/>
<path d="M18.5448 10.4762C15.9291 10.1332 13.27 10.5555 10.8892 11.6921C8.50846 12.8286 6.50807 14.6308 5.13006 16.8804C3.75206 19.13 3.05548 21.7308 3.12461 24.368C3.19374 27.0053 4.02561 29.566 5.51959 31.7403C7.01356 33.9147 9.10561 35.6095 11.5426 36.6198C13.9797 37.6301 16.6573 37.9125 19.2514 37.4329C21.8456 36.9533 24.2452 35.7322 26.16 33.9174C28.0747 32.1026 29.4225 29.7718 30.0403 27.207" stroke="white" stroke-width="3"/>
</svg>
