<svg width="40" height="40" viewBox="0 0 40 40" fill="none" xmlns="http://www.w3.org/2000/svg">
<path d="M37.3732 5.15702C37.0858 5.02397 36.7665 4.97496 36.4525 5.01566C36.1384 5.05636 35.8422 5.18511 35.5982 5.38702L26.9065 12.632L21.3015 5.63202C21.1394 5.44606 20.9394 5.29699 20.7149 5.19484C20.4903 5.09269 20.2465 5.03983 19.9998 5.03983C19.7532 5.03983 19.5093 5.09269 19.2848 5.19484C19.0603 5.29699 18.8602 5.44606 18.6982 5.63202L13.0932 12.632L4.39984 5.38702C4.1565 5.18434 3.86045 5.05518 3.54637 5.01467C3.23228 4.97416 2.91315 5.02397 2.62635 5.15828C2.33955 5.29259 2.09695 5.50583 1.92696 5.77303C1.75697 6.04023 1.66662 6.35033 1.6665 6.66702V30.0004C1.6665 31.3264 2.19329 32.5982 3.13097 33.5359C4.06865 34.4736 5.34042 35.0004 6.6665 35.0004H33.3332C34.6593 35.0004 35.931 34.4736 36.8687 33.5359C37.8064 32.5982 38.3332 31.3264 38.3332 30.0004V6.66702C38.3333 6.3501 38.243 6.03971 38.073 5.77227C37.903 5.50482 37.6602 5.29139 37.3732 5.15702ZM34.9998 30.0004C34.9998 30.4424 34.8242 30.8663 34.5117 31.1789C34.1991 31.4914 33.7752 31.667 33.3332 31.667H6.6665C6.22448 31.667 5.80055 31.4914 5.48799 31.1789C5.17543 30.8663 4.99984 30.4424 4.99984 30.0004V28.3337H34.9998V30.0004ZM34.9998 25.0004H4.99984V10.2254L12.2665 16.2804C12.4365 16.423 12.6334 16.53 12.8456 16.595C13.0577 16.66 13.2808 16.6816 13.5015 16.6587C13.7219 16.6364 13.9357 16.5704 14.1303 16.4645C14.3249 16.3586 14.4964 16.215 14.6348 16.042L19.9998 9.33369L25.3648 16.0404C25.5034 16.2136 25.6751 16.3575 25.87 16.4635C26.0649 16.5695 26.279 16.6356 26.4997 16.6578C26.7205 16.68 26.9434 16.6579 27.1555 16.5928C27.3676 16.5277 27.5646 16.4209 27.7348 16.2787L34.9998 10.2254V25.0004Z" fill="#7F56D9"/>
<path d="M23.3333 18.333H16.6667C16.2246 18.333 15.8007 18.5086 15.4882 18.8212C15.1756 19.1337 15 19.5576 15 19.9997C15 20.4417 15.1756 20.8656 15.4882 21.1782C15.8007 21.4907 16.2246 21.6663 16.6667 21.6663H23.3333C23.7754 21.6663 24.1993 21.4907 24.5118 21.1782C24.8244 20.8656 25 20.4417 25 19.9997C25 19.5576 24.8244 19.1337 24.5118 18.8212C24.1993 18.5086 23.7754 18.333 23.3333 18.333Z" fill="#7F56D9"/>
</svg>
