<svg width="11" height="10" viewBox="0 0 11 10" fill="none" xmlns="http://www.w3.org/2000/svg">
<path id="Vector" d="M4.0001 1.5H2.6001C2.04005 1.5 1.75981 1.5 1.5459 1.60899C1.35774 1.70487 1.20487 1.85774 1.10899 2.0459C1 2.25981 1 2.54005 1 3.1001V7.9001C1 8.46015 1 8.74003 1.10899 8.95394C1.20487 9.1421 1.35774 9.29524 1.5459 9.39111C1.7596 9.5 2.0395 9.5 2.59846 9.5H7.40155C7.9605 9.5 8.23999 9.5 8.4537 9.39111C8.64186 9.29524 8.79524 9.14196 8.89111 8.9538C9 8.74009 9 8.4605 9 7.90155V6.5M7 2L4 5V6.5H5.5L8.5 3.5M7 2L8.5 0.5L10 2L8.5 3.5M7 2L8.5 3.5" stroke="#7E7EAA" stroke-linecap="round" stroke-linejoin="round"/>
</svg>
