<svg width="67" height="67" viewBox="0 0 67 67" fill="none" xmlns="http://www.w3.org/2000/svg">
<path d="M16.125 51.75H49.875C50.3723 51.75 50.8492 51.5525 51.2008 51.2008C51.5525 50.8492 51.75 50.3723 51.75 49.875V38.625C51.75 38.1277 51.5525 37.6508 51.2008 37.2992C50.8492 36.9475 50.3723 36.75 49.875 36.75H29.25V16.125C29.25 15.6277 29.0525 15.1508 28.7008 14.7992C28.3492 14.4475 27.8723 14.25 27.375 14.25H16.125C15.6277 14.25 15.1508 14.4475 14.7992 14.7992C14.4475 15.1508 14.25 15.6277 14.25 16.125V49.875C14.25 50.3723 14.4475 50.8492 14.7992 51.2008C15.1508 51.5525 15.6277 51.75 16.125 51.75ZM29.25 40.5H33V42.375C33 42.8723 33.1975 43.3492 33.5492 43.7008C33.9008 44.0525 34.3777 44.25 34.875 44.25C35.3723 44.25 35.8492 44.0525 36.2008 43.7008C36.5525 43.3492 36.75 42.8723 36.75 42.375V40.5H40.5V42.375C40.5 42.8723 40.6975 43.3492 41.0492 43.7008C41.4008 44.0525 41.8777 44.25 42.375 44.25C42.8723 44.25 43.3492 44.0525 43.7008 43.7008C44.0525 43.3492 44.25 42.8723 44.25 42.375V40.5H48V48H29.25V40.5ZM18 18H25.5V21.75H23.625C23.1277 21.75 22.6508 21.9475 22.2992 22.2992C21.9475 22.6508 21.75 23.1277 21.75 23.625C21.75 24.1223 21.9475 24.5992 22.2992 24.9508C22.6508 25.3025 23.1277 25.5 23.625 25.5H25.5V29.25H23.625C23.1277 29.25 22.6508 29.4475 22.2992 29.7992C21.9475 30.1508 21.75 30.6277 21.75 31.125C21.75 31.6223 21.9475 32.0992 22.2992 32.4508C22.6508 32.8025 23.1277 33 23.625 33H25.5V36.75H18V18ZM18 40.5H25.5V48H18V40.5Z" fill="white"/>
</svg>
