<svg width="18" height="18" viewBox="0 0 18 18" fill="none" xmlns="http://www.w3.org/2000/svg">
<path d="M2.93669 2.93555H15.2444C15.4257 2.93555 15.5996 3.00759 15.7279 3.13582C15.8561 3.26405 15.9281 3.43796 15.9281 3.61931V14.5595C15.9281 14.7408 15.8561 14.9147 15.7279 15.043C15.5996 15.1712 15.4257 15.2432 15.2444 15.2432H2.93669C2.75535 15.2432 2.58143 15.1712 2.4532 15.043C2.32497 14.9147 2.25293 14.7408 2.25293 14.5595V3.61931C2.25293 3.43796 2.32497 3.26405 2.4532 3.13582C2.58143 3.00759 2.75535 2.93555 2.93669 2.93555ZM14.5606 8.40563H3.62045V13.8757H14.5606V8.40563ZM14.5606 7.03811V4.30307H3.62045V7.03811H14.5606ZM10.4581 11.1407H13.1931V12.5082H10.4581V11.1407Z" fill="white"/>
</svg>
