<svg width="20" height="21" viewBox="0 0 20 21" fill="none" xmlns="http://www.w3.org/2000/svg">
<g id="Group 1432">
<path id="Vector" d="M19.4007 8.8631H18.6434V8.82163H10.183V12.8186H15.4957C14.7206 15.1454 12.6379 16.8156 10.183 16.8156C7.06808 16.8156 4.54263 14.1311 4.54263 10.8201C4.54263 7.50911 7.06808 4.82463 10.183 4.82463C11.6208 4.82463 12.9289 5.4012 13.9248 6.34299L16.5838 3.51662C14.9048 1.85337 12.6591 0.827637 10.183 0.827637C4.9915 0.827637 0.78241 5.30177 0.78241 10.8201C0.78241 16.3385 4.9915 20.8126 10.183 20.8126C15.3744 20.8126 19.5835 16.3385 19.5835 10.8201C19.5835 10.1501 19.5186 9.49612 19.4007 8.8631Z" fill="#FFC107"/>
<path id="Vector_2" d="M10.183 20.8127C12.6111 20.8127 14.8175 19.825 16.4856 18.2187L13.5761 15.6016C12.6006 16.3902 11.4086 16.8168 10.183 16.8157C7.7379 16.8157 5.66179 15.1585 4.87967 12.8457L1.81415 15.3563C3.36994 18.5924 6.52946 20.8127 10.183 20.8127Z" fill="#4CAF50"/>
<path id="Vector_3" d="M19.4006 8.86325H18.6434V8.82178H10.1829V12.8188H15.4956C15.1249 13.9261 14.457 14.8938 13.5746 15.6022L13.576 15.6012L16.4855 18.2182C16.2796 18.4171 19.5835 15.8165 19.5835 10.8203C19.5835 10.1503 19.5186 9.49627 19.4006 8.86325Z" fill="#1976D2"/>
<path id="Vector_4" d="M1.86624 6.16912L4.95479 8.57681C5.7905 6.37746 7.81444 4.82463 10.1829 4.82463C11.6207 4.82463 12.9288 5.4012 13.9248 6.34299L16.5837 3.51662C14.9048 1.85337 12.659 0.827637 10.1829 0.827637C6.57215 0.827637 3.44083 2.99451 1.86624 6.16912Z" fill="#FF3D00"/>
</g>
</svg>
