<svg width="32" height="41" viewBox="0 0 32 41" fill="none" xmlns="http://www.w3.org/2000/svg">
<path d="M13.377 7.42188V3.39162C13.377 2.07047 14.5043 0.999494 15.895 0.999494C17.2857 0.999494 18.413 2.07047 18.413 3.39162V7.42188" stroke="#4671CC" stroke-width="2" stroke-miterlimit="10"/>
<path d="M30.1056 27.5493L15.8951 33.0342L1.68457 27.5493V20.562L15.8951 15.077L30.1056 20.562V27.5493Z" stroke="#4671CC" stroke-width="2" stroke-miterlimit="10"/>
<path d="M3.44824 28.2306V35.0946L15.8947 39.3008L28.3411 35.0946V28.2306" stroke="#4671CC" stroke-width="2" stroke-miterlimit="10"/>
<path d="M28.3411 19.8809V19.2461C28.3411 12.7159 22.7687 7.42202 15.8947 7.42202C9.0207 7.42202 3.44824 12.7159 3.44824 19.2461V19.8809" stroke="#4671CC" stroke-width="2" stroke-miterlimit="10"/>
<path d="M25.3691 22.0184V26.0928" stroke="#4671CC" stroke-width="2" stroke-miterlimit="10"/>
<path d="M15.8955 19.1112V29.001" stroke="#4671CC" stroke-width="2" stroke-miterlimit="10"/>
<path d="M6.42188 22.0184V26.0928" stroke="#4671CC" stroke-width="2" stroke-miterlimit="10"/>
<path d="M11.1582 20.5624V27.5498" stroke="#4671CC" stroke-width="2" stroke-miterlimit="10"/>
<path d="M20.6318 20.5624V27.5498" stroke="#4671CC" stroke-width="2" stroke-miterlimit="10"/>
</svg>
