<svg width="42" height="42" viewBox="0 0 42 42" fill="none" xmlns="http://www.w3.org/2000/svg">
<path d="M35.6518 8.39333L34.4046 9.22668V9.22668L35.6518 8.39333ZM35.6518 29.2825L34.4046 28.4491H34.4046L35.6518 29.2825ZM33.4446 31.4896L32.6112 30.2424V30.2424L33.4446 31.4896ZM25 32.8352L24.9935 31.3352C24.1676 31.3388 23.5 32.0093 23.5 32.8352H25ZM25 32.8379L26.3416 33.5087C26.4458 33.3004 26.5 33.0708 26.5 32.8379H25ZM20.1056 39.049L21.4472 38.3782V38.3782L20.1056 39.049ZM17 32.8379H15.5C15.5 33.0708 15.5542 33.3004 15.6584 33.5087L17 32.8379ZM17 32.8352H18.5C18.5 32.0093 17.8324 31.3388 17.0065 31.3352L17 32.8352ZM8.55544 31.4896L9.38879 30.2424H9.38879L8.55544 31.4896ZM6.34824 29.2825L7.59545 28.4491H7.59545L6.34824 29.2825ZM6.34824 8.39333L7.59545 9.22668L6.34824 8.39333ZM8.55544 6.18613L9.38879 7.43334L8.55544 6.18613ZM33.4446 6.18613L32.6112 7.43334V7.43334L33.4446 6.18613ZM38.5 18.8379C38.5 16.0602 38.5018 13.864 38.3238 12.1138C38.1432 10.3385 37.7652 8.85641 36.899 7.55997L34.4046 9.22668C34.8865 9.94803 35.1827 10.8793 35.3392 12.4174C35.4982 13.9805 35.5 15.9977 35.5 18.8379H38.5ZM36.899 30.1158C37.7652 28.8194 38.1432 27.3373 38.3238 25.562C38.5018 23.8118 38.5 21.6156 38.5 18.8379H35.5C35.5 21.678 35.4982 23.6952 35.3392 25.2584C35.1827 26.7965 34.8865 27.7277 34.4046 28.4491L36.899 30.1158ZM34.2779 32.7369C35.3152 32.0437 36.2059 31.1531 36.899 30.1158L34.4046 28.4491C33.9303 29.1588 33.3209 29.7682 32.6112 30.2424L34.2779 32.7369ZM25.0065 34.3352C27.1571 34.3258 28.9215 34.2852 30.3849 34.0829C31.8725 33.8773 33.1456 33.4934 34.2779 32.7369L32.6112 30.2424C31.9808 30.6636 31.1894 30.9432 29.9741 31.1112C28.7348 31.2825 27.1583 31.3257 24.9935 31.3352L25.0065 34.3352ZM26.5 32.8379V32.8352H23.5V32.8379H26.5ZM23.2361 39.7199L26.3416 33.5087L23.6584 32.1671L20.5528 38.3782L23.2361 39.7199ZM18.7639 39.7199C19.6852 41.5625 22.3148 41.5625 23.2361 39.7199L20.5528 38.3782C20.737 38.0097 21.263 38.0097 21.4472 38.3782L18.7639 39.7199ZM15.6584 33.5087L18.7639 39.7199L21.4472 38.3782L18.3416 32.1671L15.6584 33.5087ZM15.5 32.8352V32.8379H18.5V32.8352H15.5ZM7.72208 32.7369C8.85441 33.4934 10.1275 33.8773 11.6151 34.0829C13.0785 34.2852 14.8429 34.3258 16.9935 34.3352L17.0065 31.3352C14.8417 31.3257 13.2652 31.2825 12.0258 31.1112C10.8106 30.9432 10.0192 30.6636 9.38879 30.2424L7.72208 32.7369ZM5.10104 30.1158C5.79414 31.1531 6.68478 32.0437 7.72208 32.7369L9.38879 30.2424C8.67906 29.7682 8.06968 29.1588 7.59545 28.4491L5.10104 30.1158ZM3.5 18.8379C3.5 21.6156 3.49819 23.8118 3.67623 25.562C3.85683 27.3373 4.23479 28.8194 5.10104 30.1158L7.59545 28.4491C7.11346 27.7277 6.81729 26.7965 6.66083 25.2584C6.50181 23.6952 6.5 21.678 6.5 18.8379H3.5ZM5.10104 7.55997C4.23479 8.85641 3.85683 10.3385 3.67623 12.1138C3.49819 13.864 3.5 16.0602 3.5 18.8379H6.5C6.5 15.9977 6.50181 13.9805 6.66083 12.4174C6.81729 10.8793 7.11346 9.94803 7.59545 9.22668L5.10104 7.55997ZM7.72208 4.93893C6.68478 5.63204 5.79414 6.52267 5.10104 7.55997L7.59545 9.22668C8.06968 8.51695 8.67906 7.90757 9.38879 7.43334L7.72208 4.93893ZM19 3.33789C16.2223 3.33789 14.0261 3.33608 12.2759 3.51412C10.5006 3.69472 9.01852 4.07268 7.72208 4.93893L9.38879 7.43334C10.1101 6.95135 11.0414 6.65518 12.5795 6.49872C14.1427 6.3397 16.1599 6.33789 19 6.33789V3.33789ZM23 3.33789H19V6.33789H23V3.33789ZM34.2779 4.93893C32.9815 4.07268 31.4994 3.69472 29.7241 3.51412C27.9739 3.33608 25.7777 3.33789 23 3.33789V6.33789C25.8401 6.33789 27.8573 6.3397 29.4205 6.49872C30.9586 6.65518 31.8899 6.95135 32.6112 7.43334L34.2779 4.93893ZM36.899 7.55997C36.2059 6.52267 35.3152 5.63204 34.2779 4.93893L32.6112 7.43334C33.3209 7.90757 33.9303 8.51695 34.4046 9.22668L36.899 7.55997Z" fill="white"/>
<circle cx="29" cy="19" r="2" fill="white" stroke="white" stroke-linecap="round"/>
<circle cx="21" cy="19" r="2" fill="white" stroke="white" stroke-linecap="round"/>
<circle cx="13" cy="19" r="2" fill="white" stroke="white" stroke-linecap="round"/>
</svg>
