<svg width="11" height="12" viewBox="0 0 11 12" fill="none" xmlns="http://www.w3.org/2000/svg">
<path d="M5.3624 7.6501L7.0124 6.0001M7.0124 6.0001L5.3624 4.3501M7.0124 6.0001H0.962402M3.7124 3.38682V3.36021C3.7124 2.74415 3.7124 2.43589 3.8323 2.20059C3.93776 1.99361 4.10591 1.82545 4.31289 1.71999C4.54819 1.6001 4.85645 1.6001 5.47251 1.6001H8.00251C8.61857 1.6001 8.92617 1.6001 9.16147 1.71999C9.36845 1.82545 9.53717 1.99361 9.64263 2.20059C9.7624 2.43566 9.7624 2.74354 9.7624 3.3584V8.64207C9.7624 9.25692 9.7624 9.56436 9.64263 9.79943C9.53717 10.0064 9.36845 10.1749 9.16147 10.2803C8.9264 10.4001 8.61895 10.4001 8.0041 10.4001H5.4707C4.85585 10.4001 4.54796 10.4001 4.31289 10.2803C4.10591 10.1749 3.93776 10.0063 3.8323 9.79927C3.7124 9.56397 3.7124 9.25616 3.7124 8.6401V8.6126" stroke="white" stroke-linecap="round" stroke-linejoin="round"/>
</svg>
