<svg width="43" height="43" viewBox="0 0 43 43" fill="none" xmlns="http://www.w3.org/2000/svg">
<path d="M27.7705 18.8125L22.3955 24.1875L18.8122 20.6042L13.4372 25.9792" stroke="white" stroke-width="3" stroke-linecap="round" stroke-linejoin="round"/>
<path d="M25.0837 8.95801H10.367C9.24689 8.95801 8.68683 8.95801 8.25901 9.17599C7.88269 9.36774 7.57673 9.6737 7.38498 10.05C7.16699 10.4779 7.16699 11.0379 7.16699 12.158V32.633C7.16699 33.7531 7.16699 34.3132 7.38498 34.741C7.57673 35.1173 7.88269 35.4233 8.25901 35.615C8.68683 35.833 9.24689 35.833 10.367 35.833H30.842C31.9621 35.833 32.5221 35.833 32.95 35.615C33.3263 35.4233 33.6323 35.1173 33.824 34.741C34.042 34.3132 34.042 33.7531 34.042 32.633V17.9163" stroke="white" stroke-width="3" stroke-linecap="round"/>
<ellipse cx="34.0413" cy="8.95833" rx="3.58333" ry="3.58333" fill="white"/>
</svg>
