<svg width="13" height="15" viewBox="0 0 13 15" fill="none" xmlns="http://www.w3.org/2000/svg">
<path d="M9.23311 6.25217C9.23311 5.93922 8.97944 5.68555 8.66649 5.68555H2.83029C2.51735 5.68555 2.26367 5.93922 2.26367 6.25217C2.26367 6.56511 2.51735 6.81879 2.83029 6.81879H8.66649C8.97944 6.81879 9.23311 6.56511 9.23311 6.25217Z" fill="white"/>
<path d="M2.83029 7.95215C2.51735 7.95215 2.26367 8.20582 2.26367 8.51877C2.26367 8.83171 2.51735 9.08539 2.83029 9.08539H6.37482C6.68776 9.08539 6.94144 8.83171 6.94144 8.51877C6.94144 8.20582 6.68776 7.95215 6.37482 7.95215H2.83029Z" fill="white"/>
<path d="M4.16152 13.3918H2.26648C1.64161 13.3918 1.13324 12.8834 1.13324 12.2585V2.28602C1.13324 1.66115 1.64161 1.15277 2.26648 1.15277H9.23278C9.85765 1.15277 10.366 1.66115 10.366 2.28602V5.77074C10.366 6.08368 10.6197 6.33736 10.9326 6.33736C11.2456 6.33736 11.4993 6.08368 11.4993 5.77074V2.28602C11.4993 1.03628 10.4825 0.0195312 9.23278 0.0195312H2.26648C1.01674 0.0195312 0 1.03628 0 2.28602V12.2585C0 13.5083 1.01674 14.525 2.26648 14.525H4.16152C4.47447 14.525 4.72814 14.2714 4.72814 13.9584C4.72814 13.6455 4.47447 13.3918 4.16152 13.3918Z" fill="white"/>
<path d="M12.5028 8.22371C11.84 7.56094 10.7616 7.56091 10.0993 8.22326L6.98843 11.3272C6.92236 11.3931 6.87363 11.4743 6.84649 11.5636L6.16901 13.794C6.10895 13.9917 6.16127 14.2065 6.30559 14.3544C6.4137 14.4652 6.56057 14.5253 6.71121 14.5253C6.76161 14.5253 6.81249 14.5186 6.86244 14.5047L9.14946 13.8712C9.24358 13.8452 9.32937 13.7952 9.39849 13.7262L12.5028 10.6277C13.1656 9.96494 13.1656 8.88655 12.5028 8.22371ZM8.70336 12.8189L7.55278 13.1376L7.8895 12.0291L9.98852 9.93468L10.79 10.7362L8.70336 12.8189ZM11.7019 9.82606L11.5921 9.93562L10.7908 9.13427L10.9002 9.02508C11.1211 8.80416 11.4806 8.80416 11.7015 9.02508C11.9224 9.24601 11.9224 9.60547 11.7019 9.82606Z" fill="white"/>
<path d="M8.66649 3.41895H2.83029C2.51735 3.41895 2.26367 3.67262 2.26367 3.98557C2.26367 4.29851 2.51735 4.55219 2.83029 4.55219H8.66649C8.97944 4.55219 9.23311 4.29851 9.23311 3.98557C9.23311 3.67262 8.97944 3.41895 8.66649 3.41895Z" fill="white"/>
</svg>
