<svg width="31" height="30" viewBox="0 0 31 30" fill="none" xmlns="http://www.w3.org/2000/svg">
<g clip-path="url(#clip0_666_18134)">
<path d="M25.8948 21.25H28.3948V23.75H3.39478V21.25H5.89478V12.5C5.89478 9.84784 6.94834 7.3043 8.82371 5.42893C10.6991 3.55357 13.2426 2.5 15.8948 2.5C18.5469 2.5 21.0905 3.55357 22.9658 5.42893C24.8412 7.3043 25.8948 9.84784 25.8948 12.5V21.25ZM23.3948 21.25V12.5C23.3948 10.5109 22.6046 8.60322 21.1981 7.1967C19.7916 5.79018 17.8839 5 15.8948 5C13.9057 5 11.998 5.79018 10.5915 7.1967C9.18495 8.60322 8.39478 10.5109 8.39478 12.5V21.25H23.3948ZM12.1448 26.25H19.6448V28.75H12.1448V26.25Z" fill="#EDEDED"/>
</g>
<defs>
<clipPath id="clip0_666_18134">
<rect width="30" height="30" fill="white" transform="translate(0.894775)"/>
</clipPath>
</defs>
</svg>
