<svg width="28" height="29" viewBox="0 0 28 29" fill="none" xmlns="http://www.w3.org/2000/svg">
<path d="M19.7416 23.9704C19.7416 22.0614 17.1623 20.5138 13.9806 20.5138C10.7989 20.5138 8.21962 22.0614 8.21962 23.9704M24.3503 20.5143C24.3503 19.0969 22.9284 17.8787 20.8938 17.3453M3.61084 20.5143C3.61084 19.0969 5.03276 17.8787 7.06742 17.3453M20.8938 12.7205C21.6009 12.0876 22.046 11.1678 22.046 10.1441C22.046 8.23507 20.4984 6.6875 18.5894 6.6875C17.7041 6.6875 16.8965 7.02032 16.285 7.56765M7.06742 12.7205C6.36027 12.0876 5.91523 11.1678 5.91523 10.1441C5.91523 8.23507 7.4628 6.6875 9.37181 6.6875C10.2571 6.6875 11.0647 7.02032 11.6762 7.56765M13.9806 17.0573C12.0716 17.0573 10.524 15.5097 10.524 13.6007C10.524 11.6917 12.0716 10.1441 13.9806 10.1441C15.8896 10.1441 17.4372 11.6917 17.4372 13.6007C17.4372 15.5097 15.8896 17.0573 13.9806 17.0573Z" stroke="white" stroke-width="2" stroke-linecap="round" stroke-linejoin="round"/>
</svg>
