<svg width="67" height="67" viewBox="0 0 67 67" fill="none" xmlns="http://www.w3.org/2000/svg">
<path d="M25.9661 13.7568H40.6216V16.1944H25.9661V13.7568ZM45.8993 52.8332H20.6213L20.2634 52.4828C18.4302 50.6247 17.4023 48.1194 17.4023 45.5091C17.4023 42.8989 18.4302 40.3936 20.2634 38.5355L28.4634 30.3356V18.6395H30.9084V31.3494L21.9631 40.2947C20.6434 41.6306 19.8766 43.4153 19.8158 45.2921C19.755 47.1688 20.4047 48.9994 21.6351 50.4179H44.8334C46.0495 48.9938 46.6912 47.1676 46.6334 45.2958C46.5755 43.424 45.8221 41.641 44.5203 40.2947L35.7016 31.3494V18.6768H38.1392V30.3505L46.3392 38.5504C48.1832 40.4028 49.2185 42.9102 49.2185 45.524C49.2185 48.1379 48.1832 50.6453 46.3392 52.4977L45.8993 52.8332Z" fill="white"/>
<path d="M22.522 47.1223C22.3426 46.6021 22.2543 46.0549 22.2611 45.5047C22.2539 44.8536 22.3768 44.2077 22.6226 43.6048C22.8684 43.0019 23.2321 42.4541 23.6924 41.9936L32.2426 33.4434L33.9646 35.1728L25.4143 43.7305C25.1763 43.9618 24.9876 44.2389 24.8595 44.5451C24.7314 44.8513 24.6665 45.1802 24.6689 45.5121C24.6679 45.7983 24.7132 46.0828 24.8031 46.3545L22.522 47.1223Z" fill="white"/>
</svg>
