<svg width="67" height="67" viewBox="0 0 67 67" fill="none" xmlns="http://www.w3.org/2000/svg">
<g clip-path="url(#clip0_548_8853)">
<path d="M39.125 53.1875H34.9062C34.1606 53.1867 33.4457 52.8902 32.9184 52.3629C32.3911 51.8356 32.0945 51.1207 32.0938 50.375V43.3438H34.9062V50.375H39.125V43.3438H41.9375V37.7188C41.9371 37.3459 41.7888 36.9885 41.5252 36.7248C41.2615 36.4612 40.9041 36.3129 40.5312 36.3125H28.2678L25.4553 27.875H16.625C16.2522 27.8754 15.8947 28.0237 15.6311 28.2873C15.3674 28.551 15.2192 28.9084 15.2188 29.2813V37.7188H18.0312V50.375H23.6562V40.5313H26.4688V50.375C26.468 51.1207 26.1714 51.8356 25.6441 52.3629C25.1168 52.8902 24.4019 53.1867 23.6562 53.1875H18.0312C17.2856 53.1867 16.5707 52.8902 16.0434 52.3629C15.5161 51.8356 15.2195 51.1207 15.2188 50.375V40.5313C14.4731 40.5305 13.7582 40.2339 13.2309 39.7066C12.7036 39.1793 12.407 38.4644 12.4062 37.7188V29.2813C12.4075 28.1627 12.8523 27.0904 13.6432 26.2995C14.4342 25.5086 15.5065 25.0637 16.625 25.0625H25.4553C26.0457 25.062 26.6212 25.2475 27.1002 25.5927C27.5792 25.9379 27.9373 26.4252 28.1236 26.9854L30.2947 33.5H40.5312C41.6498 33.5012 42.7221 33.9461 43.513 34.737C44.3039 35.5279 44.7488 36.6002 44.75 37.7188V43.3438C44.7492 44.0894 44.4527 44.8043 43.9254 45.3316C43.3981 45.8589 42.6832 46.1555 41.9375 46.1563V50.375C41.9367 51.1207 41.6402 51.8356 41.1129 52.3629C40.5856 52.8902 39.8707 53.1867 39.125 53.1875Z" fill="white"/>
<path d="M50.375 53.1875H47.5625V37.7188H51.7812V29.2812C51.7808 28.9084 51.6326 28.551 51.3689 28.2873C51.1053 28.0237 50.7478 27.8754 50.375 27.875H44.75V25.0625H50.375C51.4935 25.0637 52.5658 25.5086 53.3568 26.2995C54.1477 27.0904 54.5925 28.1627 54.5938 29.2812V37.7188C54.593 38.4644 54.2964 39.1793 53.7691 39.7066C53.2418 40.2339 52.5269 40.5305 51.7812 40.5312H50.375V53.1875Z" fill="white"/>
<path d="M20.8438 23.6563C19.7312 23.6563 18.6437 23.3264 17.7187 22.7083C16.7936 22.0902 16.0727 21.2117 15.6469 20.1838C15.2212 19.156 15.1098 18.025 15.3268 16.9339C15.5439 15.8427 16.0796 14.8404 16.8663 14.0538C17.6529 13.2671 18.6552 12.7314 19.7464 12.5143C20.8375 12.2973 21.9685 12.4087 22.9963 12.8344C24.0242 13.2602 24.9027 13.9811 25.5208 14.9062C26.1389 15.8312 26.4688 16.9187 26.4688 18.0313C26.4671 19.5226 25.8739 20.9523 24.8194 22.0069C23.7648 23.0614 22.3351 23.6546 20.8438 23.6563ZM20.8438 15.2188C20.2875 15.2188 19.7437 15.3837 19.2812 15.6927C18.8187 16.0018 18.4582 16.441 18.2453 16.955C18.0325 17.4689 17.9768 18.0344 18.0853 18.5799C18.1938 19.1255 18.4617 19.6267 18.855 20.02C19.2483 20.4133 19.7495 20.6812 20.2951 20.7897C20.8406 20.8982 21.4061 20.8425 21.9201 20.6297C22.434 20.4168 22.8732 20.0563 23.1823 19.5938C23.4913 19.1313 23.6563 18.5875 23.6563 18.0313C23.6555 17.2856 23.3589 16.5707 22.8316 16.0434C22.3044 15.5161 21.5894 15.2195 20.8438 15.2188Z" fill="white"/>
<path d="M46.1563 23.6563C45.0437 23.6563 43.9562 23.3264 43.0312 22.7083C42.1061 22.0902 41.3852 21.2117 40.9594 20.1838C40.5337 19.156 40.4223 18.025 40.6393 16.9339C40.8564 15.8427 41.3921 14.8404 42.1788 14.0538C42.9654 13.2671 43.9677 12.7314 45.0589 12.5143C46.15 12.2973 47.281 12.4087 48.3088 12.8344C49.3367 13.2602 50.2152 13.9811 50.8333 14.9062C51.4514 15.8312 51.7813 16.9187 51.7813 18.0313C51.7796 19.5226 51.1864 20.9523 50.1319 22.0069C49.0774 23.0614 47.6476 23.6546 46.1563 23.6563ZM46.1563 15.2188C45.6 15.2188 45.0562 15.3837 44.5937 15.6927C44.1312 16.0018 43.7707 16.441 43.5578 16.955C43.345 17.4689 43.2893 18.0344 43.3978 18.5799C43.5063 19.1255 43.7742 19.6267 44.1675 20.02C44.5609 20.4133 45.062 20.6812 45.6076 20.7897C46.1531 20.8982 46.7186 20.8425 47.2326 20.6297C47.7465 20.4168 48.1857 20.0563 48.4948 19.5938C48.8038 19.1313 48.9688 18.5875 48.9688 18.0313C48.968 17.2856 48.6714 16.5707 48.1441 16.0434C47.6169 15.5161 46.9019 15.2195 46.1563 15.2188Z" fill="white"/>
<path d="M37.0156 32.0938C36.0422 32.0938 35.0906 31.8051 34.2812 31.2643C33.4718 30.7234 32.8409 29.9548 32.4684 29.0554C32.0959 28.156 31.9984 27.1664 32.1883 26.2117C32.3782 25.2569 32.847 24.3799 33.5353 23.6916C34.2237 23.0033 35.1007 22.5345 36.0554 22.3446C37.0102 22.1547 37.9998 22.2521 38.8991 22.6247C39.7985 22.9972 40.5672 23.628 41.108 24.4374C41.6488 25.2468 41.9375 26.1984 41.9375 27.1719C41.936 28.4768 41.4169 29.7278 40.4942 30.6505C39.5715 31.5732 38.3205 32.0922 37.0156 32.0938ZM37.0156 25.0625C36.5984 25.0625 36.1906 25.1862 35.8437 25.418C35.4968 25.6498 35.2265 25.9792 35.0668 26.3647C34.9072 26.7501 34.8654 27.1742 34.9468 27.5834C35.0282 27.9926 35.2291 28.3684 35.5241 28.6634C35.8191 28.9584 36.1949 29.1593 36.6041 29.2407C37.0133 29.3221 37.4374 29.2803 37.8228 29.1207C38.2083 28.961 38.5377 28.6907 38.7695 28.3438C39.0013 27.9969 39.125 27.5891 39.125 27.1719C39.1244 26.6126 38.9019 26.0765 38.5065 25.681C38.111 25.2856 37.5749 25.0631 37.0156 25.0625Z" fill="white"/>
</g>
<defs>
<clipPath id="clip0_548_8853">
<rect width="45" height="45" fill="white" transform="translate(11 11)"/>
</clipPath>
</defs>
</svg>
