<svg width="35" height="35" viewBox="0 0 35 35" fill="none" xmlns="http://www.w3.org/2000/svg">
<path d="M10.1582 17.0641L22.5755 2.03268L32.9995 2L32.9668 12.424L17.9353 24.8413" stroke="#FF6905" stroke-width="2.5" stroke-linecap="round" stroke-linejoin="round"/>
<path d="M14.0479 20.9525L23.851 11.1494" stroke="#FF6905" stroke-width="2.5" stroke-linecap="round" stroke-linejoin="round"/>
<path d="M11.1228 27.7328L6.23761 32.618C5.99258 32.8624 5.66059 32.9997 5.31448 32.9997C4.96837 32.9997 4.63639 32.8624 4.39136 32.618L2.38172 30.6084C2.13728 30.3633 2 30.0313 2 29.6852C2 29.3391 2.13728 29.0071 2.38172 28.7621L7.26694 23.8769C7.39044 23.7553 7.48851 23.6103 7.55546 23.4504C7.6224 23.2905 7.65688 23.1189 7.65688 22.9456C7.65688 22.7723 7.6224 22.6007 7.55546 22.4408C7.48851 22.2809 7.39044 22.1359 7.26694 22.0143L3.86852 18.6159C3.74502 18.4943 3.64695 18.3493 3.58 18.1894C3.51306 18.0295 3.47858 17.8579 3.47858 17.6846C3.47858 17.5112 3.51306 17.3396 3.58 17.1798C3.64695 17.0199 3.74502 16.8749 3.86852 16.7533L5.92718 14.6946C6.0488 14.5711 6.19377 14.4731 6.35366 14.4061C6.51354 14.3392 6.68514 14.3047 6.85848 14.3047C7.03181 14.3047 7.20341 14.3392 7.36329 14.4061C7.52318 14.4731 7.66815 14.5711 7.78977 14.6946L20.3051 27.2099C20.4286 27.3316 20.5267 27.4765 20.5936 27.6364C20.6606 27.7963 20.695 27.9679 20.695 28.1412C20.695 28.3146 20.6606 28.4862 20.5936 28.6461C20.5267 28.8059 20.4286 28.9509 20.3051 29.0725L18.2464 31.1312C18.1248 31.2547 17.9798 31.3528 17.82 31.4197C17.6601 31.4867 17.4885 31.5211 17.3151 31.5211C17.1418 31.5211 16.9702 31.4867 16.8103 31.4197C16.6504 31.3528 16.5055 31.2547 16.3838 31.1312L12.9854 27.7328C12.8638 27.6093 12.7188 27.5112 12.5589 27.4443C12.3991 27.3773 12.2275 27.3428 12.0541 27.3428C11.8808 27.3428 11.7092 27.3773 11.5493 27.4443C11.3894 27.5112 11.2445 27.6093 11.1228 27.7328Z" stroke="#FF6905" stroke-width="2.5" stroke-linecap="round" stroke-linejoin="round"/>
</svg>
