<svg width="43" height="42" viewBox="0 0 43 42" fill="none" xmlns="http://www.w3.org/2000/svg">
<g clip-path="url(#clip0_2046_31285)">
<rect width="42.6468" height="42" transform="translate(0.175781)" fill="#5A5574"/>
<path d="M17.9433 27.9998H25.0512C26.0285 27.9998 26.8281 27.2123 26.8281 26.2498V17.4998H29.6535C31.2349 17.4998 32.0346 15.6098 30.9151 14.5073L22.7589 6.47477C22.0659 5.79227 20.9464 5.79227 20.2534 6.47477L12.0972 14.5073C10.9777 15.6098 11.7596 17.4998 13.341 17.4998H16.1664V26.2498C16.1664 27.2123 16.966 27.9998 17.9433 27.9998ZM10.8355 31.4998H32.159C33.1363 31.4998 33.9359 32.2873 33.9359 33.2498C33.9359 34.2123 33.1363 34.9998 32.159 34.9998H10.8355C9.85822 34.9998 9.05859 34.2123 9.05859 33.2498C9.05859 32.2873 9.85822 31.4998 10.8355 31.4998Z" fill="#C2C2FF"/>
</g>
<defs>
<clipPath id="clip0_2046_31285">
<rect width="42.6468" height="42" fill="white" transform="translate(0.175781)"/>
</clipPath>
</defs>
</svg>
